<?xml version="1.0" encoding="utf-8"?>
<!-- Generator: Adobe Illustrator 22.0.1, SVG Export Plug-In . SVG Version: 6.00 Build 0)  -->
<svg version="1.1" id="Capa_1" xmlns="http://www.w3.org/2000/svg" xmlns:xlink="http://www.w3.org/1999/xlink" x="0px" y="0px"
	 viewBox="0 0 512 512" style="enable-background:new 0 0 512 512;" xml:space="preserve">
<style type="text/css">
	.st0{fill:none;stroke:#000000;stroke-width:18;stroke-miterlimit:10;}
</style>
<path class="st0" d="M54.5,20c0-5.5,4.3-10,9.5-10h384c5.2,0,9.5,4.5,9.5,10v227.2l-154.7,133L262,413.3c-4,6.4-7.8,5.9-12.1,0
	l-40.8-33.1l-154.7-133V20H54.5z"/>
<polygon points="20,498.7 20,219.1 190.8,356.3 "/>
<polygon points="36.4,511 206.3,370.4 256,406.8 305.9,370.4 475.6,511 "/>
<polygon points="492,498.7 321.2,356.3 492,219.1 "/>
<path d="M364.3,81.5c-5.4-5.5-12.8-4.5-16.7,2.1L228.3,218.3l-45.4-46.6c-5.4-5.5-12.8-4.5-16.7,2.1c-3.9,6.6-2.6,16.6,2.7,22
	l55.2,56.6c2.8,2.8,5.9,4,9,3.6c3.1-0.4,5.9-2.3,7.8-5.7l126.2-146.9C370.9,96.8,369.6,87,364.3,81.5z"/>
<path d="M47,257.1H32c-6.6,0-12-5.4-12-12v-33.3c0-6.6,5.4-12,12-12h15c6.6,0,12,5.4,12,12v33.3C59,251.7,53.6,257.1,47,257.1z"/>
<path d="M480,257.1h-15c-6.6,0-12-5.4-12-12v-33.3c0-6.6,5.4-12,12-12h15c6.6,0,12,5.4,12,12v33.3C492,251.7,486.6,257.1,480,257.1z
	"/>
</svg>
