<?xml version="1.0" encoding="UTF-8"?>
<svg width="16px" height="4px" viewBox="0 0 16 4" version="1.1" xmlns="http://www.w3.org/2000/svg" xmlns:xlink="http://www.w3.org/1999/xlink">
    <!-- Generator: Sketch 48.2 (47327) - http://www.bohemiancoding.com/sketch -->
    <title>Icon</title>
    <desc>Created with Sketch.</desc>
    <defs></defs>
    <g id="UI-Controls-/-Buttons-/-More" stroke="none" stroke-width="1" fill="none" fill-rule="evenodd" transform="translate(-6.000000, -12.000000)">
        <g id="Button" fill="#FFFFFF">
            <path d="M8,16 C6.8954305,16 6,15.1045695 6,14 C6,12.8954305 6.8954305,12 8,12 C9.1045695,12 10,12.8954305 10,14 C10,15.1045695 9.1045695,16 8,16 Z M14,16 C12.8954305,16 12,15.1045695 12,14 C12,12.8954305 12.8954305,12 14,12 C15.1045695,12 16,12.8954305 16,14 C16,15.1045695 15.1045695,16 14,16 Z M20,16 C18.8954305,16 18,15.1045695 18,14 C18,12.8954305 18.8954305,12 20,12 C21.1045695,12 22,12.8954305 22,14 C22,15.1045695 21.1045695,16 20,16 Z" id="Icon"></path>
        </g>
    </g>
</svg>